<svg xmlns="http://www.w3.org/2000/svg" viewBox="0 0 603.11 716.33" fill="#ffa759"><defs><style>.a{fill-rule:evenodd;}</style></defs><title>Asset 1</title><path class="a" d="M.15,103.67c16.69-.8,32.46-1,48.15-2.4,51.27-4.38,100-18.17,146.58-40,35.82-16.8,70.54-35.46,102.17-59.39,3.46-2.62,5.7-2.4,9,.07A567.57,567.57,0,0,0,459.22,81.48c43,14.67,87.5,21.54,133,21.6H603v7.25c0,96.74-.18,193.47.15,290.2.14,42.47-11.93,81.49-32.94,117.65q-70.82,121.9-199.12,181.28a185.43,185.43,0,0,1-56.4,16.1c-24.67,2.9-48-2.66-70.7-11.38-51.13-19.61-94.71-50.88-134.08-88.34-33.5-31.87-62-67.66-83-109.11C9.45,472.2-.18,435.91,0,396.85c.45-95.37.14-190.74.14-286.11v-7.07ZM140,380.92,268,489.15,463.29,265.68l-46-39.64L261.42,404.28l-82.11-69.34-39.35,46Z"/></svg>