<svg id="图层_1" data-name="图层 1" xmlns="http://www.w3.org/2000/svg" viewBox="0 0 220.92 220.92"><defs><style>.cls-1{fill:#333;fill-rule:evenodd;}</style></defs><title>踩</title><path class="cls-1" d="M1049.68,579c13.54-3.87,19.58-15,19.58-23.71,0-60.59-22.5-103.58-27.09-111.61-4.69-9-13.22-13.31-24.73-13.31H979.71a205.39,205.39,0,0,0-41.24,4.75c-16.36,3.76-24,5.6-28,6.58l-.32.08-1.65.43a2.24,2.24,0,0,0-.32.08,20.47,20.47,0,0,0-18.42-11.92H869a20.73,20.73,0,0,0-20.71,20.71V561.52A20.74,20.74,0,0,0,869,582.23h20.71a21.89,21.89,0,0,0,13.81-5.52l-.36.31c.71.32,5.57,2.71,7.27,3.61,23.17,12.18,27.46,36.19,27.62,50.09a20.84,20.84,0,0,0,20.71,20.55c16,0,34-21.82,34-46.59,0-10.37-.32-16.21-1.73-22.69,29.68-.78,50-.76,58.6-3Zm-153-127.92V561.52a6.9,6.9,0,0,1-6.9,6.9H869a6.9,6.9,0,0,1-6.9-6.9V451.05a6.9,6.9,0,0,1,6.9-6.9h20.71a6.9,6.9,0,0,1,6.9,6.9Zm158.63,99.87c.09,2.32.16,2,.16,4.34a10.59,10.59,0,0,1-8.2,10.57c-6.09,1.6-5.61,2.59-74.65,2.59,5.74,17.06,6.39,19.89,6.39,36.26,0,18.13-12.9,32.78-20.2,32.78a6.92,6.92,0,0,1-6.9-6.9c-.28-23.52-9.88-52.16-41.42-65.21.24.13,0,2.78,0-7.71l-1-101.44c1.8-.51,3.31-1,32-7.63.49-.11,19.29-4.41,38.25-4.41h37.73c7.12,0,10.48,2.27,12.57,6,0,0,22.41,31.36,25.29,100.74Z" transform="translate(-848.34 -430.34)"/></svg>