<svg xmlns="http://www.w3.org/2000/svg" viewBox="0 0 717.6 717.61"><path class="a" d="M654,234.83c-28-7.36-93.95-7.27-190.35-9.81,4.58-21,5.61-40,5.61-73.69C469.26,70.87,410.66,0,358.8,0,322.18,0,292,29.94,291.52,66.76c-.5,45.15-14.45,123.15-89.7,162.7-5.52,2.91-21.31,10.69-23.61,11.72l1.18,1c-11.78-10.15-28.1-17.94-44.85-17.94H67.27A67.36,67.36,0,0,0,0,291.52V650.33a67.35,67.35,0,0,0,67.27,67.28h67.28c26.69,0,49-16.12,59.83-38.72a7.28,7.28,0,0,0,1.05.26l5.36,1.4a9.85,9.85,0,0,1,1,.26c12.92,3.2,37.78,9.15,90.93,21.37,11.41,2.58,71.57,15.42,134,15.42H549.28c37.38,0,65.09-13.94,80.33-43.23,14.89-26.07,88.06-165.72,88-362.53,0-28.33-19.6-64.45-63.6-77ZM157,650.33a22.41,22.41,0,0,1-22.43,22.43H67.27a22.41,22.41,0,0,1-22.43-22.43V291.52a22.4,22.4,0,0,1,22.43-22.41h67.28A22.4,22.4,0,0,1,157,291.52V650.33ZM672.24,325.95c-9.35,225.38-82.14,327.23-82.14,327.23-6.79,12.22-17.7,19.58-40.82,19.58H426.71c-61.6,0-122.68-14-124.26-14.32-93.16-21.46-98.07-23.13-103.91-24.79l3.28-329.49c0-34.09.77-25.48,0-25.05C304.27,236.69,335.45,143.66,336.37,67.27c.13-10.73,8.41-22.42,22.43-22.42,23.72,0,65.61,47.59,65.61,106.47,0,53.17-2.12,62.37-20.76,117.79,224.25,0,222.67,3.21,242.47,8.4,24.53,7,26.63,27.33,26.63,34.34,0,7.69-.22,6.57-.5,14.1Z"/></svg>