<svg id="图层_1" data-name="图层 1" xmlns="http://www.w3.org/2000/svg" viewBox="0 0 220.92 220.92"><defs><style>.cls-1{fill-rule:evenodd;}</style></defs><title>点赞</title><path class="cls-1" d="M1049.68,502.64c-8.62-2.27-28.92-2.24-58.6-3,1.41-6.48,1.73-12.32,1.73-22.69,0-24.77-18-46.59-34-46.59a20.84,20.84,0,0,0-20.71,20.55c-.15,13.9-4.45,37.91-27.62,50.09-1.7.9-6.56,3.29-7.27,3.61l.36.31a21.89,21.89,0,0,0-13.81-5.52H869a20.74,20.74,0,0,0-20.71,20.71V630.55A20.73,20.73,0,0,0,869,651.27h20.71a20.47,20.47,0,0,0,18.42-11.92,2.24,2.24,0,0,0,.32.08l1.65.43.32.08c4,1,11.63,2.82,28,6.58a205.39,205.39,0,0,0,41.24,4.75h37.73c11.51,0,20-4.29,24.73-13.31,4.59-8,27.11-51,27.09-111.61,0-8.72-6-19.84-19.58-23.71Zm-153,127.92a6.9,6.9,0,0,1-6.9,6.9H869a6.9,6.9,0,0,1-6.9-6.9V520.09a6.9,6.9,0,0,1,6.9-6.9h20.71a6.9,6.9,0,0,1,6.9,6.9V630.55Zm158.63-99.87c-2.88,69.38-25.29,100.74-25.29,100.74-2.09,3.76-5.45,6-12.57,6H979.71c-19,0-37.77-4.3-38.25-4.41-28.68-6.61-30.19-7.12-32-7.63l1-101.44c0-10.49.24-7.84,0-7.71,31.54-13.06,41.14-41.7,41.42-65.21a6.92,6.92,0,0,1,6.9-6.9c7.3,0,20.2,14.65,20.2,32.78,0,16.37-.65,19.2-6.39,36.26,69,0,68.55,1,74.65,2.59a10.59,10.59,0,0,1,8.2,10.57c0,2.37-.07,2-.16,4.34Z" transform="translate(-848.34 -430.34)"/></svg>