<svg xmlns="http://www.w3.org/2000/svg" viewBox="0 0 80 80"><defs><style>.a,.d{fill:#e9314a;}.b{fill:#fff;}.c{fill:#efefef;}.d{fill-rule:evenodd;}</style></defs><title>download_android</title><path class="a" d="M0,74a5.86,5.86,0,0,0,5.8125,6h68A6.1812,6.1812,0,0,0,80,74V56H0Z" transform="translate(0 0)"/><path class="b" d="M24.4609,69.4922q-.5867,1.7109-1.1016,2.8828h1.9219q.8438,0,1.875-.0469v.9375q-1.0312-.0469-1.6406-.0469H18.0625q-.7976,0-1.5469.0469v-.9375q.7493.0469,1.5.0469H22.375a31.389,31.389,0,0,0,1.2422-3.2812,23.83,23.83,0,0,0,.6328-2.4375,4.0294,4.0294,0,0,0,1.1719.4688A15.4982,15.4982,0,0,0,24.4609,69.4922Zm.4922-4.2891q.375,0,1.4063-.0469v.8906Q25.375,66,24.5781,66h-5.625q-.5625,0-1.6875.0469v-.8906q1.125.0469,1.6875.0469Zm-3.8437,6.375a10.2894,10.2894,0,0,1-.9844.4688q-.5164-1.4531-.9844-2.5078t-.9844-2.0859q.4219-.2344.9375-.4687A39.1493,39.1493,0,0,1,21.1094,71.5781ZM22.375,64.5q-.3757.2344-.8906.5156A8.0773,8.0773,0,0,0,20.5,63.3281q.4219-.2344.8438-.5156A12.913,12.913,0,0,1,22.375,64.5Z" transform="translate(0 0)"/><path class="b" d="M33.7656,64.875v2.3906q0,.8906.0469,1.6406h-3.75v2.8125q1.6875-.7031,2.25-.9844a6.0758,6.0758,0,0,0-.6094-.7969,4.7446,4.7446,0,0,0,.7969-.6094q.4219.6094.9375,1.3828t.9375,1.5234a6.5883,6.5883,0,0,0-.8906.5625,15.3605,15.3605,0,0,0-.75-1.4062q-1.125.5625-1.9453.9375a13.6868,13.6868,0,0,0-1.57.8438q-.2812-.4687-.5625-.8906A1.1029,1.1029,0,0,0,29.125,71.25V64.875q0-.75-.0469-1.4531h4.7344Q33.7656,64.125,33.7656,64.875Zm-.9375.9375V64.125H30.0625v1.6875Zm0,2.3438V66.5156H30.0625v1.6406Zm5.8125-2.625v5.0625a1.1666,1.1666,0,0,1-.3281.9609,4.1314,4.1314,0,0,1-1.5.4922,2.0749,2.0749,0,0,0-.4219-1.125,3.5974,3.5974,0,0,0,1.1953-.0469q.1641-.0937.1641-.7969V64.2188H35.6406v9.5625h-.9375q.0469-1.1719.0469-2.5312V65.3438q0-.9844-.0469-1.8281h3.9844Q38.6406,64.5938,38.6406,65.5313Z" transform="translate(0 0)"/><path class="b" d="M49.1875,63.7969q.8906,0,1.8281-.0469v.9844q-1.0312-.0469-1.8281-.0469H45.9531v7.2188q0,.6094.0469,1.5469H44.9219q.0469-.8437.0469-1.5469V64.6875H42.3906q-.9375,0-1.8281.0469V63.75q.8906.0469,1.8281.0469Zm.375,6.9375a26.4273,26.4273,0,0,0-2.9062-2.9531l.7031-.7031a34.3959,34.3959,0,0,1,3.0469,2.9063A4.8309,4.8309,0,0,0,49.5625,70.7344Z" transform="translate(0 0)"/><path class="b" d="M58.4219,72.3516a6.5671,6.5671,0,0,0,1.3125-1.3828,11.9176,11.9176,0,0,1-.5859-1.9922,18.3843,18.3843,0,0,1-.3516-2.7422H53.875q-.7969,0-1.5937.0469v-.7969q.7969.0469,2.7188.0469v-.8437q-1.5,0-2.0625.0469v-.7969q.5625.0469,2.0625.0469,0-.6562-.0469-1.1719h.9844a9.0235,9.0235,0,0,0-.0469,1.1719h.75q.75,0,1.2656-.0469v.7969q-.5625-.0469-1.2656-.0469h-.75v.8438H58.75q-.0469-1.4531-.1406-2.7656a6.7815,6.7815,0,0,0,.9844.0938,21.4991,21.4991,0,0,0-.0469,2.6719h2.0625q.8438,0,1.6406-.0469v.7969q-.8437-.0469-1.6406-.0469H59.5938q.1406,1.4531.3047,2.4375a4.7088,4.7088,0,0,0,.3984,1.4063q.2344-.5156.5391-1.3125a8.25,8.25,0,0,0,.4453-1.7812,4.1117,4.1117,0,0,0,1.0313.4219A14.8035,14.8035,0,0,0,61.6328,69a14.0344,14.0344,0,0,1-.9609,2.0156q1.125,2.1094,1.3828,1.5a6.204,6.204,0,0,0,.3516-1.0312,6.8419,6.8419,0,0,0,.8906.375q-.7031,1.875-1.2891,1.9453t-1.8516-1.9922a9.1111,9.1111,0,0,1-2.2031,1.9219,3.0284,3.0284,0,0,0-.75-.6094A6.5821,6.5821,0,0,0,58.4219,72.3516Zm-2.2031,1.3828h-.9375q0-.9844.0469-1.5937a24.1248,24.1248,0,0,0-2.5781.4688l-.3281-.9844q.5156,0,2.9063-.2344v-1.125h-.9844a5.4043,5.4043,0,0,0-1.2187.1406l-.3281-.8906q.1875-.1875.3516-.3281a8.297,8.297,0,0,0,.7734-.9844q-.5156,0-1.2656.0469v-.8437q.8438.0469,1.6875.0469.375-.6562.6094-1.1719.4688.1875,1.0313.375-.375.4219-.6562.7969h1.0313q.9375-.0469,1.7344-.0469V68.25q-.7969-.0469-1.7344-.0469h-1.5q-.1875.2813-1.0312,1.3594h1.5q0-.375-.0469-.9844h.9375q-.0469.6094-.0469.9844.7969,0,1.7813-.0469v.7969q-.9844-.0469-1.7812-.0469V71.25q1.5-.1875,1.9219-.2812-.0937.4688-.1406.7969A16.9472,16.9472,0,0,0,56.1719,72Q56.1719,72.75,56.2188,73.7344Zm6.1406-9.2812a7.8618,7.8618,0,0,0-.75.4688q-.2344-.3281-1.125-1.3594.3281-.2344.7031-.4687A11.1921,11.1921,0,0,1,62.3594,64.4531Z" transform="translate(0 0)"/><path class="c" d="M6,0H74a6,6,0,0,1,6,6V56a0,0,0,0,1,0,0H0a0,0,0,0,1,0,0V6A6,6,0,0,1,6,0Z"/><path class="d" d="M49.9143,22.1582c-3.2449.009-6.49.1114-9.7348.1114H30.5c-.3766,0-.345-.2115-.345.162V36.33c0,.1305-.0124.261-.0034.39a2.3894,2.3894,0,0,0,2.3209,2.1781c.4671.0045.932.0169,1.3979-.0056.2624-.0123.3212.072.319.324-.0125,1.4885-.009,2.9769-.0057,4.4654a2.1729,2.1729,0,0,0,1.1028,2A2.2351,2.2351,0,0,0,38.67,43.7538c.01-1.5256.0056-3.0511-.0023-4.5768-.0012-.2115.0441-.288.2748-.2847.8132.0146,1.6276.0169,2.4408-.0011.26-.0056.3065.0844.3054.32-.01,1.5064-.0045,3.014-.0045,4.52a2.2856,2.2856,0,0,0,.0475.5547,2.2366,2.2366,0,0,0,2.5222,1.682,2.2086,2.2086,0,0,0,1.89-2.2164q.0034-2.1213,0-4.2415c0-.612,0-.6053.6176-.6143a7.5878,7.5878,0,0,0,1.5664-.0473,2.441,2.441,0,0,0,1.9047-2.5224c.0012-4.651-.0011-9.2491.0068-13.9,0-.2576-.07-.2678-.3246-.2678Zm5.5839,1.9576a4.7713,4.7713,0,0,0-.0362-.5828,2.2336,2.2336,0,0,0-4.44.2205c-.0158,1.5807-.0045,3.1614-.0034,4.7421,0,1.6-.0125,3.1986.0045,4.7984a2.1813,2.1813,0,0,0,1.6185,2.0138,2.2439,2.2439,0,0,0,2.857-2.21q.0051-4.4907,0-8.9825Zm-26.2547-.8865a2.48,2.48,0,0,0-2.616-1.5863A2.3761,2.3761,0,0,0,24.5,23.8695v4.6578c0,1.5436.1787,3.0872.181,4.6308a2.28,2.28,0,0,0,.121.4432,2.2728,2.2728,0,0,0,2.5516,1.7653,2.213,2.213,0,0,0,1.9431-2.2152c.0023-3.0962.0125-6.1924.0125-9.2885a2.1717,2.1717,0,0,0-.0656-.6334Zm20.5056-4.7759a9.3194,9.3194,0,0,0-4.4235-5.0571c-.1877-.1046-.2-.1722-.0984-.351.4671-.8247.9161-1.6606,1.3765-2.4886.1063-.19.1595-.3679-.06-.5074-.1742-.1114-.3472-.0315-.4864.2183-.4637.8382-.93,1.6752-1.3821,2.519-.095.1778-.181.2048-.3676.126a10.9023,10.9023,0,0,0-8.29.0056c-.18.0765-.2545.0394-.3438-.126-.38-.7133-.7759-1.4187-1.1672-2.1275-.0939-.171-.1866-.3431-.2884-.51a.2935.2935,0,0,0-.39-.1215.2743.2743,0,0,0-.1595.3465.8452.8452,0,0,0,.0984.2284c.4422.8078.8754,1.619,1.3346,2.4166.1255.2183.0622.2824-.1267.39a9.0312,9.0312,0,0,0-4.8815,7.55c-.0169.2452.0419.3308.3122.33,3.245-.01,6.4888-.0067,9.7337-.0067q4.881,0,9.7619.0056c.2681.0011.3563-.0585.3371-.3341a9.065,9.065,0,0,0-.4886-2.5066ZM35.5683,17.667a.8411.8411,0,0,1-.8234-.8775.8465.8465,0,0,1,1.692.0461.8372.8372,0,0,1-.8686.8314Zm9.167,0a.8582.8582,0,0,1-.837-.8685.85.85,0,0,1,1.7.0293.8452.8452,0,0,1-.863.8393Z" transform="translate(0 0)"/></svg>