<?xml version="1.0" encoding="utf-8"?>
<!-- Generator: Adobe Illustrator 19.0.0, SVG Export Plug-In . SVG Version: 6.00 Build 0)  -->
<svg version="1.1" id="图层_1" xmlns="http://www.w3.org/2000/svg" xmlns:xlink="http://www.w3.org/1999/xlink" x="0px" y="0px"
	 viewBox="0 0 284 128" style="enable-background:new 0 0 284 128;" xml:space="preserve">
<style type="text/css">
	.st0{fill:url(#XMLID_2_);}
	.st1{fill:#E9314A;}
</style>
<g id="XMLID_5_">
	<linearGradient id="XMLID_2_" gradientUnits="userSpaceOnUse" x1="58.189" y1="1.6767" x2="49.4832" y2="126.0959">
		<stop  offset="0" style="stop-color:#FF592C"/>
		<stop  offset="0.5714" style="stop-color:#E9314A"/>
	</linearGradient>
	<path id="XMLID_27_" class="st0" d="M105,63.1c0-1-1-2.1-1.3,1.1c-1.8,17.1-11.8,35.4-28.7,44.7c-11.4,6.2-26.6,10.5-36.9,9.3
		c-2.1-0.2-1.7-1.5-0.5-2.4c2.3-1.7,19.2-14.6,17.3-38.6C53,53.6,47.6,45.1,61.6,32c2-1.9,2.1-4.6-1-6c-3.7-1.7-7.1-2-7.7-2.1
		c-1.3-0.2-2.6-0.5-2.8-1.4c-0.6-1.8,0.3-3.4,2.3-3.5c4.4-0.4,10.2,0.4,16,4.9c2,1.6,4.8,3.5,7.4,3.4c15.2-0.7,25.5,10.8,27.5,18.3
		c0.1,0.5,0.8,0.3,0.8-0.2c-2.2-19.7-13-32.6-31.4-40.4C48.3-5.1,17.4,7.6,7.2,33.5c-9.4,23.8-0.9,54.3,20.6,64.1c2,0.9,5,1.6,8.2,2
		c1.9,0.2,2.4,2.8,1.8,3.9c-5.6,9.7-14.4,12-15.8,15.1c-1.1,2.5,3.4,5,9.4,6.1c15.3,2.7,34.5-1.8,49.5-13
		C100.2,97,105,74.2,105,63.1z"/>
	<g id="XMLID_9_">
		<path id="XMLID_25_" class="st1" d="M135.3,83.6L135.3,83.6c2.2,0,3.9,1.8,3.9,3.9v13.8c0,3.7-0.9,6.6-2.6,8.8
			c-2.2,2.8-5.3,4.2-9.2,4.2c-0.4,0-0.9,0-1.3-0.1c-1.6-0.2-2.7-1.6-2.7-3.1v-0.9c0-1.8,1.5-3.2,3.3-3.2c0,0,0,0,0,0
			c3.1,0,4.7-2.3,4.7-6.9V87.5C131.4,85.4,133.2,83.6,135.3,83.6z"/>
		<path id="XMLID_23_" class="st1" d="M151.7,87.5v13.1c0,2.2-1.8,3.9-3.9,3.9l0,0c-2.2,0-3.9-1.8-3.9-3.9V87.5
			c0-2.2,1.8-3.9,3.9-3.9l0,0C150,83.6,151.7,85.4,151.7,87.5z"/>
		<path id="XMLID_21_" class="st1" d="M168,99v4.2c0,1-0.8,1.8-1.8,1.8l0,0c-3.2,0-5.8-1-7.9-3.1c-2.1-2.1-3.2-4.7-3.2-7.8
			c0-3,1.1-5.6,3.2-7.7c2.1-2.1,4.7-3.2,7.8-3.2c3.4,0,6.1,1,8,3c2,2,2.9,4.7,2.9,8.1v6.4c0,2.2-1.8,3.9-3.9,3.9l0,0
			c-2.2,0-3.9-1.8-3.9-3.9v-5.8c0-1.1-0.3-2-0.8-2.7c-0.5-0.7-1.3-1-2.2-1c-0.8,0-1.5,0.3-2.1,0.9c-0.6,0.6-0.9,1.3-0.9,2.1
			c0,0.9,0.3,1.6,0.8,2.1c0.5,0.6,1.2,0.8,2.1,0.8l0.1,0C167.2,97.3,168,98.1,168,99z"/>
		<path id="XMLID_19_" class="st1" d="M196.5,104.6L196.5,104.6c-2.2,0-3.9-1.8-3.9-3.9v-7.9c0-1.2-0.5-1.8-1.5-1.8
			c-1,0-1.5,0.6-1.5,1.8v7.9c0,2.2-1.8,3.9-3.9,3.9l0,0c-2.2,0-3.9-1.8-3.9-3.9v-7.8c0-2.7,0.9-5,2.7-6.9c1.8-1.9,4-2.8,6.6-2.8
			c3,0,5.4,1.1,7.2,3.3c1.4,1.7,2.1,4.1,2.1,7.1v7.1C200.4,102.8,198.6,104.6,196.5,104.6z"/>
		<path id="XMLID_17_" class="st1" d="M211.8,83.6L211.8,83.6c2.2,0,3.9,1.8,3.9,3.9v13.8c0,3.7-0.9,6.6-2.6,8.8
			c-2.2,2.8-5.3,4.2-9.2,4.2c-0.4,0-0.9,0-1.3-0.1c-1.6-0.2-2.7-1.6-2.7-3.1v-0.7c0-1.8,1.5-3.3,3.3-3.3l0,0c3.1,0,4.7-2.3,4.7-6.9
			V87.5C207.8,85.4,209.6,83.6,211.8,83.6z"/>
		<path id="XMLID_15_" class="st1" d="M228.2,87.5v13.1c0,2.2-1.8,3.9-3.9,3.9h0c-2.2,0-3.9-1.8-3.9-3.9V87.5c0-2.2,1.8-3.9,3.9-3.9
			h0C226.4,83.6,228.2,85.4,228.2,87.5z"/>
		<path id="XMLID_13_" class="st1" d="M244.5,99.1v4.1c0,1-0.8,1.8-1.8,1.8l0,0c-3.2,0-5.8-1-7.9-3.1c-2.1-2.1-3.2-4.7-3.2-7.8
			c0-3,1.1-5.6,3.2-7.7c2.1-2.1,4.7-3.2,7.8-3.2c3.4,0,6.1,1,8,3c2,2,2.9,4.7,2.9,8.1v6.4c0,2.2-1.8,3.9-3.9,3.9l0,0
			c-2.2,0-3.9-1.8-3.9-3.9v-5.8c0-1.1-0.3-2-0.8-2.7c-0.5-0.7-1.3-1-2.2-1c-0.8,0-1.5,0.3-2.1,0.9c-0.6,0.6-0.9,1.3-0.9,2.1
			c0,0.9,0.3,1.6,0.8,2.1c0.5,0.6,1.2,0.8,2.1,0.8l0,0C243.6,97.3,244.5,98.1,244.5,99.1z"/>
		<path id="XMLID_10_" class="st1" d="M268.1,83.2c3,0,5.5,1.1,7.6,3.2c2.1,2.1,3.2,4.7,3.2,7.7c0,3-1.1,5.6-3.2,7.7
			c-2.2,2.1-4.8,3.2-7.8,3.2c-3,0-5.6-1.1-7.8-3.2c-2.2-2.1-3.2-4.7-3.2-7.7c0-3.1,1.1-5.7,3.2-7.8
			C262.3,84.2,264.9,83.2,268.1,83.2z M267.9,90.9c-0.8,0-1.6,0.3-2.1,0.9c-0.6,0.6-0.9,1.4-0.9,2.2c0,0.9,0.3,1.6,0.9,2.2
			c0.6,0.6,1.3,0.9,2.1,0.9c0.8,0,1.6-0.3,2.2-0.9c0.6-0.6,0.9-1.4,0.9-2.2c0-0.9-0.3-1.6-0.9-2.2C269.5,91.2,268.7,90.9,267.9,90.9
			z"/>
	</g>
	<g id="XMLID_75_">
		<path id="XMLID_76_" class="st1" d="M149.8,40.5c0.3,0.1,0.4,0.2,0.7,0.2c0.5,0,1-0.2,1.7-0.6l0.2-0.2c4.7-5.3,8.5-11.3,11.8-17.7
			L164,22v-0.2c0-0.5,0.2-1.9-0.8-2.5c-0.7-0.4-1.4-0.3-2.4,0.4l-0.2,0.1l-0.1,0.3c-2.6,5.2-6.3,11-11.5,17.3l0,0.3V38
			C149,38.4,148.8,39.9,149.8,40.5z"/>
		<path id="XMLID_77_" class="st1" d="M198.6,46.9l-0.2,0.1H176v-4.1l-0.3-0.3c-0.4-0.5-0.9-0.8-1.4-1c0.5-0.2,1-0.7,1.5-1.3L176,40
			V17.1l-0.2-0.2c-1.3-2-3.2-2-4.6,0l-0.2,0.2V40l0.2,0.2c0.4,0.7,0.9,1.1,1.4,1.3c-0.5,0.2-0.9,0.5-1.4,1l-0.2,0.3V47h-22.2
			l-0.2-0.1c-1,0.7-1.5,1.3-1.5,2.1c0,0.8,0.5,1.3,1.5,2l0.2-0.1h21.7c-3.2,8-10.5,12.6-21.9,13.9l-0.3,0.1l-0.2,0.3
			c-0.3,0.3-1.3,1.3-1,2.4c0.2,0.7,0.8,1.3,1.8,1.8l0.2,0.1l0.2,0c11.6-1.1,19.8-6,24.5-14.4c5.1,7.3,12.8,12.3,22.9,14.8l0.3,0.1
			l0.3-0.1c0.8-0.3,1.9-0.7,2.1-1.8c0.2-1.1-0.7-1.9-1.3-2.4l-0.2-0.1l-0.2-0.2c-8.9-2.3-16.1-7.4-20.8-14.4h21.7l0.2,0
			c1-0.7,1.5-1.2,1.5-2C200.2,48.2,199.6,47.6,198.6,46.9z"/>
		<path id="XMLID_78_" class="st1" d="M181.8,22.6l0.1,0.2c3.4,5.2,7.1,10.9,10.9,17l0.1,0.1l0.1,0.1c0.3,0.3,1.1,0.9,2.1,0.9
			c0.2,0,0.4,0,0.7-0.1c0.8-0.3,1.3-1.1,1.5-2.3l0.1-0.3l-0.2-0.3c-3.2-5.5-7.1-11.6-11.4-18l-0.2-0.3l-0.3-0.1
			c-0.5-0.2-1.9-0.6-2.8,0.2c-0.6,0.5-0.8,1.4-0.6,2.6L181.8,22.6z"/>
		<path id="XMLID_79_" class="st1" d="M234.8,56.4l0.2,0.2c0.7,0.7,1.3,1,1.9,1c0.1,0,0.3,0,0.4,0c1.2-0.3,1.7-1.7,1.9-2.2l0.1-0.3
			l-0.1-0.3c-0.9-3.8-2.2-8.5-4-14.1l-0.1-0.3l-0.2-0.2c-0.4-0.3-1.6-1.2-2.7-0.8c-0.8,0.3-1.2,1.1-1.4,2.3l0,0.2l0.1,0.2
			c2,6.4,3.3,11,3.9,13.9L234.8,56.4z"/>
		<path id="XMLID_82_" class="st1" d="M255.8,65.5c-2.5-4.2-5-9.4-7.2-15.3c3.1-8.4,5.2-17.4,6.1-26.6c0-2-0.8-5.6-6.2-5.6h-10.8
			l-0.2,0.3c-0.5,0.3-1.9,1-1.9,2.3c0,0.5,0.2,1.3,0.5,1.3H230v-5.4l-0.2-0.3c-1.4-1.6-3.2-1.6-4.5,0l-0.3,0.3V34h-5.9
			c-1.2,0-1.6,0.7-1.8,1c-0.1,0.2,0.1,0.3,0.1,0.5c-0.7-1.6-1.4-3.4-2.4-5.2V30h5.8l0.3-0.2c0.8-0.7,1.2-1.4,1.2-2.2
			s-0.4-1.6-1.2-2.3l-0.3-0.3H215v-8l-0.4-0.3c-1.4-1.6-3-1.6-4.4,0L210,17v8h-6.3l-0.3,0.5c-1,1.3-1.4,1.9-1.3,2.7
			c0.1,0.7,0.7,1.1,1.5,1.6l0.2,0.2h5.6c-2.3,8-4.8,15.2-7.5,20.6l-0.1,0.3l0.1,0.3c0.1,0.9,0.4,1.9,1.4,2.3c1,0.4,1.9-0.3,2.6-0.8
			l0.2-0.1l0.2-0.2c1.5-3.1,2.7-5.9,3.7-8.4V68l0,0.2c0.2,0.4,0.9,1.8,2.2,1.8c1.3,0,2.2-1.4,2.5-1.8L215,68V41.8
			c0,0.7,0.4,1.3,0.6,1.8l0,0.2c0.8,1,1.6,1.5,2.4,1.3c0.8-0.1,1.4-0.8,1.8-2.1l0.1-0.3l-0.1-0.3c-0.2-0.4-0.3-0.9-0.5-1.4
			c-0.4-1.2-0.9-2.6-1.5-4c0.2,0.2,0.3,0.5,0.6,0.6l0.3,0.3h7.2v25c0,0.5-0.9,0.8-3.9-0.6l-0.2-0.1l-0.3,0.1c-1.4,0.3-1.9,1-2.2,1.5
			c-0.3,0.8-0.2,1.6,0.4,2.6l0.2,0.3l0.3,0.1c2.2,0.8,3.9,1.2,5.4,1.2c1.2,0,2-0.3,2.7-0.8c1-0.7,1.5-1.9,1.5-3.5V38h8.7l0.3-0.3
			c0.4-0.3,0.7-0.7,0.9-1.1c0.7,5.6,1.8,10.4,3.1,14.5c-2.5,5-5.9,9.8-10.2,14.3l-0.2,0.2l-0.1,0.3c-0.2,1.1-0.1,1.9,0.5,2.4
			c0.5,0.5,1.3,0.7,2.4,0.5l0.2,0l0.2-0.2c3-2.5,6.3-6.6,9.8-12.3c2,4.3,4,8.1,5.8,11.5l0.1,0.2l0.2,0.1c0.7,0.6,1.4,0.8,2,0.8
			c0.2,0,0.5,0,0.7-0.1c1.2-0.5,1.5-2.1,1.5-2.7l0-0.3L255.8,65.5z M248.4,23c0.6,0,1,0.3,1.1,0.4c0.2,0.2,0.2,0.7,0.1,1.3
			c-0.5,5.9-1.7,12-3.7,18.4c-1.2-5.5-2.1-12.1-2.6-20.1H248.4z M238.4,34H230v-8h5.7c1.2,0,1.6-0.6,1.8-0.9c0.2-0.6,0-1.3-0.6-2
			c0,0,0-0.1,0-0.1l0.2,0h1.6c0.2,4,0.5,7.8,0.9,11.2C239.4,34,239,34,238.4,34z"/>
		<path id="XMLID_84_" class="st1" d="M219.9,63l0.1-0.2c2.1-5.3,3.8-12.3,5.3-20.8l0.1-0.4l-0.2-0.3c-1.2-2.1-3-2.1-4.3,0l-0.1,0.2
			l0,0.2c-1.4,8.1-3.2,14.6-5.2,19.5l-0.1,0.2l0,0.3c0.1,0.5,0.3,2.1,1.5,2.5c0.2,0.1,0.4,0.1,0.5,0.1c1,0,1.9-0.9,2.2-1.2L219.9,63
			z"/>
	</g>
</g>
</svg>
